<svg xmlns="http://www.w3.org/2000/svg" xmlns:xlink="http://www.w3.org/1999/xlink" width="500" zoomAndPan="magnify" viewBox="0 0 375 351.749992" height="469" preserveAspectRatio="xMidYMid meet" version="1.0"><defs><clipPath id="1eee455e9c"><path d="M 72 1 L 374.867188 1 L 374.867188 286 L 72 286 Z M 72 1 " clip-rule="nonzero"/></clipPath><clipPath id="417fa29dd5"><path d="M 0.132812 24 L 327 24 L 327 351.5 L 0.132812 351.5 Z M 0.132812 24 " clip-rule="nonzero"/></clipPath></defs><g clip-path="url(#1eee455e9c)"><path fill="#403e3e" d="M 72.230469 165.503906 C 72.628906 160.859375 74.570312 156.75 77.425781 153.003906 C 87.464844 139.804688 109.972656 133.757812 125.71875 143.492188 C 134.992188 149.226562 142.433594 156.605469 148.625 165.339844 C 153.765625 172.59375 158.410156 180.203125 163.410156 187.863281 C 166.902344 182.90625 170.425781 177.816406 174.039062 172.785156 C 205.054688 129.59375 239.113281 89.050781 278.617188 53.304688 C 302.851562 31.382812 330.660156 15.09375 360.578125 2.214844 C 365.75 -0.015625 370.0625 0.855469 374.496094 5.335938 C 372.46875 7.230469 370.445312 9.101562 368.441406 11 C 342.3125 35.671875 316.75 60.914062 293.539062 88.367188 C 280.261719 104.066406 267.949219 120.585938 255.277344 136.800781 C 229.765625 169.457031 210.675781 206.1875 188.988281 241.277344 C 180.621094 254.828125 172.328125 268.425781 163.945312 281.964844 C 160.617188 287.347656 156.234375 287.273438 152.886719 281.773438 C 142.046875 263.921875 133.492188 244.957031 125.414062 225.742188 C 118.667969 209.695312 111.085938 194.046875 101.464844 179.464844 C 96.699219 172.257812 91.089844 166.328125 81.867188 165.539062 C 78.753906 165.28125 75.589844 165.503906 72.230469 165.503906 Z M 72.230469 165.503906 " fill-opacity="1" fill-rule="nonzero"/></g><g clip-path="url(#417fa29dd5)"><path fill="#403e3e" d="M 306.851562 109.632812 L 281.433594 135.050781 C 288.777344 151.257812 292.851562 169.246094 292.851562 188.199219 C 292.851562 259.558594 235.011719 317.398438 163.648438 317.398438 C 92.285156 317.398438 34.449219 259.558594 34.449219 188.199219 C 34.449219 116.835938 92.285156 58.996094 163.648438 58.996094 C 181.492188 58.996094 198.472656 62.617188 213.921875 69.148438 L 239.523438 43.546875 C 216.855469 31.628906 191.035156 24.886719 163.648438 24.886719 C 73.457031 24.886719 0.339844 98.003906 0.339844 188.199219 C 0.339844 278.390625 73.457031 351.5 163.648438 351.5 C 253.84375 351.5 326.960938 278.382812 326.960938 188.191406 C 326.960938 159.722656 319.667969 132.9375 306.851562 109.632812 Z M 306.851562 109.632812 " fill-opacity="1" fill-rule="nonzero"/></g></svg>