<svg xmlns="http://www.w3.org/2000/svg" xmlns:xlink="http://www.w3.org/1999/xlink" width="2240" zoomAndPan="magnify" viewBox="0 0 1680 944.999993" height="1260" preserveAspectRatio="xMidYMid meet" version="1.0"><defs><clipPath id="441d0fde68"><path d="M 483.632812 94.5 L 502 94.5 L 502 113 L 483.632812 113 Z M 483.632812 94.5 " clip-rule="nonzero"/></clipPath><clipPath id="cec3f59dc4"><path d="M 483.632812 209 L 502 209 L 502 228 L 483.632812 228 Z M 483.632812 209 " clip-rule="nonzero"/></clipPath><clipPath id="18039305dc"><path d="M 483.632812 325 L 502 325 L 502 344 L 483.632812 344 Z M 483.632812 325 " clip-rule="nonzero"/></clipPath><clipPath id="2c7eb48ea4"><path d="M 483.632812 440 L 502 440 L 502 459 L 483.632812 459 Z M 483.632812 440 " clip-rule="nonzero"/></clipPath><clipPath id="7b26953d16"><path d="M 483.632812 555 L 502 555 L 502 574 L 483.632812 574 Z M 483.632812 555 " clip-rule="nonzero"/></clipPath><clipPath id="352691957b"><path d="M 483.632812 671 L 502 671 L 502 690 L 483.632812 690 Z M 483.632812 671 " clip-rule="nonzero"/></clipPath><clipPath id="00dcadaec1"><path d="M 483.632812 786 L 502 786 L 502 804.75 L 483.632812 804.75 Z M 483.632812 786 " clip-rule="nonzero"/></clipPath><clipPath id="b9685c879e"><path d="M 599 94.5 L 618 94.5 L 618 113 L 599 113 Z M 599 94.5 " clip-rule="nonzero"/></clipPath><clipPath id="6b70dff216"><path d="M 599 786 L 618 786 L 618 804.75 L 599 804.75 Z M 599 786 " clip-rule="nonzero"/></clipPath><clipPath id="0ed793f1bc"><path d="M 715 94.5 L 734 94.5 L 734 113 L 715 113 Z M 715 94.5 " clip-rule="nonzero"/></clipPath><clipPath id="24f587d5cb"><path d="M 715 786 L 734 786 L 734 804.75 L 715 804.75 Z M 715 786 " clip-rule="nonzero"/></clipPath><clipPath id="db91b7d8f5"><path d="M 830 94.5 L 850 94.5 L 850 113 L 830 113 Z M 830 94.5 " clip-rule="nonzero"/></clipPath><clipPath id="c1e30f3cf7"><path d="M 830 786 L 850 786 L 850 804.75 L 830 804.75 Z M 830 786 " clip-rule="nonzero"/></clipPath><clipPath id="5ca2b9c7c8"><path d="M 946 94.5 L 965 94.5 L 965 113 L 946 113 Z M 946 94.5 " clip-rule="nonzero"/></clipPath><clipPath id="21c344e8b2"><path d="M 946 786 L 965 786 L 965 804.75 L 946 804.75 Z M 946 786 " clip-rule="nonzero"/></clipPath><clipPath id="55a6672b23"><path d="M 1062 94.5 L 1081 94.5 L 1081 113 L 1062 113 Z M 1062 94.5 " clip-rule="nonzero"/></clipPath><clipPath id="0231d74acb"><path d="M 1062 786 L 1081 786 L 1081 804.75 L 1062 804.75 Z M 1062 786 " clip-rule="nonzero"/></clipPath><clipPath id="24b116bacf"><path d="M 1178 94.5 L 1196.132812 94.5 L 1196.132812 113 L 1178 113 Z M 1178 94.5 " clip-rule="nonzero"/></clipPath><clipPath id="50146c9e10"><path d="M 1178 209 L 1196.132812 209 L 1196.132812 228 L 1178 228 Z M 1178 209 " clip-rule="nonzero"/></clipPath><clipPath id="f93831de68"><path d="M 1178 325 L 1196.132812 325 L 1196.132812 344 L 1178 344 Z M 1178 325 " clip-rule="nonzero"/></clipPath><clipPath id="c65f878ca7"><path d="M 1178 440 L 1196.132812 440 L 1196.132812 459 L 1178 459 Z M 1178 440 " clip-rule="nonzero"/></clipPath><clipPath id="ad7d2d49b6"><path d="M 1178 555 L 1196.132812 555 L 1196.132812 574 L 1178 574 Z M 1178 555 " clip-rule="nonzero"/></clipPath><clipPath id="e27e4fed02"><path d="M 1178 671 L 1196.132812 671 L 1196.132812 690 L 1178 690 Z M 1178 671 " clip-rule="nonzero"/></clipPath><clipPath id="09ef91e105"><path d="M 1178 786 L 1196.132812 786 L 1196.132812 804.75 L 1178 804.75 Z M 1178 786 " clip-rule="nonzero"/></clipPath></defs><rect x="-168" width="2016" fill="#ffffff" y="-94.499999" height="1133.999992" fill-opacity="1"/><rect x="-168" width="2016" fill="#ffffff" y="-94.499999" height="1133.999992" fill-opacity="1"/><g clip-path="url(#441d0fde68)"><path fill="#ffffff" d="M 483.804688 94.515625 L 501.824219 94.515625 L 501.824219 112.539062 L 483.804688 112.539062 Z M 483.804688 94.515625 " fill-opacity="1" fill-rule="nonzero"/></g><g clip-path="url(#cec3f59dc4)"><path fill="#ffffff" d="M 483.804688 209.835938 L 501.824219 209.835938 L 501.824219 227.859375 L 483.804688 227.859375 Z M 483.804688 209.835938 " fill-opacity="1" fill-rule="nonzero"/></g><g clip-path="url(#18039305dc)"><path fill="#ffffff" d="M 483.804688 325.160156 L 501.824219 325.160156 L 501.824219 343.179688 L 483.804688 343.179688 Z M 483.804688 325.160156 " fill-opacity="1" fill-rule="nonzero"/></g><g clip-path="url(#2c7eb48ea4)"><path fill="#ffffff" d="M 483.804688 440.484375 L 501.824219 440.484375 L 501.824219 458.503906 L 483.804688 458.503906 Z M 483.804688 440.484375 " fill-opacity="1" fill-rule="nonzero"/></g><g clip-path="url(#7b26953d16)"><path fill="#ffffff" d="M 483.804688 555.804688 L 501.824219 555.804688 L 501.824219 573.828125 L 483.804688 573.828125 Z M 483.804688 555.804688 " fill-opacity="1" fill-rule="nonzero"/></g><g clip-path="url(#352691957b)"><path fill="#ffffff" d="M 483.804688 671.125 L 501.824219 671.125 L 501.824219 689.148438 L 483.804688 689.148438 Z M 483.804688 671.125 " fill-opacity="1" fill-rule="nonzero"/></g><g clip-path="url(#00dcadaec1)"><path fill="#ffffff" d="M 483.804688 786.453125 L 501.824219 786.453125 L 501.824219 804.472656 L 483.804688 804.472656 Z M 483.804688 786.453125 " fill-opacity="1" fill-rule="nonzero"/></g><g clip-path="url(#b9685c879e)"><path fill="#ffffff" d="M 599.527344 94.515625 L 617.546875 94.515625 L 617.546875 112.539062 L 599.527344 112.539062 Z M 599.527344 94.515625 " fill-opacity="1" fill-rule="nonzero"/></g><path fill="#ffffff" d="M 599.527344 209.835938 L 617.546875 209.835938 L 617.546875 227.859375 L 599.527344 227.859375 Z M 599.527344 209.835938 " fill-opacity="1" fill-rule="nonzero"/><path fill="#ffffff" d="M 599.527344 325.160156 L 617.546875 325.160156 L 617.546875 343.179688 L 599.527344 343.179688 Z M 599.527344 325.160156 " fill-opacity="1" fill-rule="nonzero"/><path fill="#ffffff" d="M 599.527344 440.484375 L 617.546875 440.484375 L 617.546875 458.503906 L 599.527344 458.503906 Z M 599.527344 440.484375 " fill-opacity="1" fill-rule="nonzero"/><path fill="#ffffff" d="M 599.527344 555.804688 L 617.546875 555.804688 L 617.546875 573.828125 L 599.527344 573.828125 Z M 599.527344 555.804688 " fill-opacity="1" fill-rule="nonzero"/><path fill="#ffffff" d="M 599.527344 671.125 L 617.546875 671.125 L 617.546875 689.148438 L 599.527344 689.148438 Z M 599.527344 671.125 " fill-opacity="1" fill-rule="nonzero"/><g clip-path="url(#6b70dff216)"><path fill="#ffffff" d="M 599.527344 786.453125 L 617.546875 786.453125 L 617.546875 804.472656 L 599.527344 804.472656 Z M 599.527344 786.453125 " fill-opacity="1" fill-rule="nonzero"/></g><g clip-path="url(#0ed793f1bc)"><path fill="#ffffff" d="M 715.253906 94.515625 L 733.273438 94.515625 L 733.273438 112.539062 L 715.253906 112.539062 Z M 715.253906 94.515625 " fill-opacity="1" fill-rule="nonzero"/></g><path fill="#ffffff" d="M 715.253906 209.835938 L 733.273438 209.835938 L 733.273438 227.859375 L 715.253906 227.859375 Z M 715.253906 209.835938 " fill-opacity="1" fill-rule="nonzero"/><path fill="#ffffff" d="M 715.253906 325.160156 L 733.273438 325.160156 L 733.273438 343.179688 L 715.253906 343.179688 Z M 715.253906 325.160156 " fill-opacity="1" fill-rule="nonzero"/><path fill="#ffffff" d="M 715.253906 440.484375 L 733.273438 440.484375 L 733.273438 458.503906 L 715.253906 458.503906 Z M 715.253906 440.484375 " fill-opacity="1" fill-rule="nonzero"/><path fill="#ffffff" d="M 715.253906 555.804688 L 733.273438 555.804688 L 733.273438 573.828125 L 715.253906 573.828125 Z M 715.253906 555.804688 " fill-opacity="1" fill-rule="nonzero"/><path fill="#ffffff" d="M 715.253906 671.125 L 733.273438 671.125 L 733.273438 689.148438 L 715.253906 689.148438 Z M 715.253906 671.125 " fill-opacity="1" fill-rule="nonzero"/><g clip-path="url(#24f587d5cb)"><path fill="#ffffff" d="M 715.253906 786.453125 L 733.273438 786.453125 L 733.273438 804.472656 L 715.253906 804.472656 Z M 715.253906 786.453125 " fill-opacity="1" fill-rule="nonzero"/></g><g clip-path="url(#db91b7d8f5)"><path fill="#ffffff" d="M 830.980469 94.515625 L 849.003906 94.515625 L 849.003906 112.539062 L 830.980469 112.539062 Z M 830.980469 94.515625 " fill-opacity="1" fill-rule="nonzero"/></g><path fill="#ffffff" d="M 830.980469 209.835938 L 849.003906 209.835938 L 849.003906 227.859375 L 830.980469 227.859375 Z M 830.980469 209.835938 " fill-opacity="1" fill-rule="nonzero"/><path fill="#ffffff" d="M 830.980469 325.160156 L 849.003906 325.160156 L 849.003906 343.179688 L 830.980469 343.179688 Z M 830.980469 325.160156 " fill-opacity="1" fill-rule="nonzero"/><path fill="#ffffff" d="M 830.980469 440.484375 L 849.003906 440.484375 L 849.003906 458.503906 L 830.980469 458.503906 Z M 830.980469 440.484375 " fill-opacity="1" fill-rule="nonzero"/><path fill="#ffffff" d="M 830.980469 555.804688 L 849.003906 555.804688 L 849.003906 573.828125 L 830.980469 573.828125 Z M 830.980469 555.804688 " fill-opacity="1" fill-rule="nonzero"/><path fill="#ffffff" d="M 830.980469 671.125 L 849.003906 671.125 L 849.003906 689.148438 L 830.980469 689.148438 Z M 830.980469 671.125 " fill-opacity="1" fill-rule="nonzero"/><g clip-path="url(#c1e30f3cf7)"><path fill="#ffffff" d="M 830.980469 786.453125 L 849.003906 786.453125 L 849.003906 804.472656 L 830.980469 804.472656 Z M 830.980469 786.453125 " fill-opacity="1" fill-rule="nonzero"/></g><g clip-path="url(#5ca2b9c7c8)"><path fill="#ffffff" d="M 946.703125 94.515625 L 964.726562 94.515625 L 964.726562 112.539062 L 946.703125 112.539062 Z M 946.703125 94.515625 " fill-opacity="1" fill-rule="nonzero"/></g><path fill="#ffffff" d="M 946.703125 209.835938 L 964.726562 209.835938 L 964.726562 227.859375 L 946.703125 227.859375 Z M 946.703125 209.835938 " fill-opacity="1" fill-rule="nonzero"/><path fill="#ffffff" d="M 946.703125 325.160156 L 964.726562 325.160156 L 964.726562 343.179688 L 946.703125 343.179688 Z M 946.703125 325.160156 " fill-opacity="1" fill-rule="nonzero"/><path fill="#ffffff" d="M 946.703125 440.484375 L 964.726562 440.484375 L 964.726562 458.503906 L 946.703125 458.503906 Z M 946.703125 440.484375 " fill-opacity="1" fill-rule="nonzero"/><path fill="#ffffff" d="M 946.703125 555.804688 L 964.726562 555.804688 L 964.726562 573.828125 L 946.703125 573.828125 Z M 946.703125 555.804688 " fill-opacity="1" fill-rule="nonzero"/><path fill="#ffffff" d="M 946.703125 671.125 L 964.726562 671.125 L 964.726562 689.148438 L 946.703125 689.148438 Z M 946.703125 671.125 " fill-opacity="1" fill-rule="nonzero"/><g clip-path="url(#21c344e8b2)"><path fill="#ffffff" d="M 946.703125 786.453125 L 964.726562 786.453125 L 964.726562 804.472656 L 946.703125 804.472656 Z M 946.703125 786.453125 " fill-opacity="1" fill-rule="nonzero"/></g><g clip-path="url(#55a6672b23)"><path fill="#ffffff" d="M 1062.433594 94.515625 L 1080.453125 94.515625 L 1080.453125 112.539062 L 1062.433594 112.539062 Z M 1062.433594 94.515625 " fill-opacity="1" fill-rule="nonzero"/></g><path fill="#ffffff" d="M 1062.433594 209.835938 L 1080.453125 209.835938 L 1080.453125 227.859375 L 1062.433594 227.859375 Z M 1062.433594 209.835938 " fill-opacity="1" fill-rule="nonzero"/><path fill="#ffffff" d="M 1062.433594 325.160156 L 1080.453125 325.160156 L 1080.453125 343.179688 L 1062.433594 343.179688 Z M 1062.433594 325.160156 " fill-opacity="1" fill-rule="nonzero"/><path fill="#ffffff" d="M 1062.433594 440.484375 L 1080.453125 440.484375 L 1080.453125 458.503906 L 1062.433594 458.503906 Z M 1062.433594 440.484375 " fill-opacity="1" fill-rule="nonzero"/><path fill="#ffffff" d="M 1062.433594 555.804688 L 1080.453125 555.804688 L 1080.453125 573.828125 L 1062.433594 573.828125 Z M 1062.433594 555.804688 " fill-opacity="1" fill-rule="nonzero"/><path fill="#ffffff" d="M 1062.433594 671.125 L 1080.453125 671.125 L 1080.453125 689.148438 L 1062.433594 689.148438 Z M 1062.433594 671.125 " fill-opacity="1" fill-rule="nonzero"/><g clip-path="url(#0231d74acb)"><path fill="#ffffff" d="M 1062.433594 786.453125 L 1080.453125 786.453125 L 1080.453125 804.472656 L 1062.433594 804.472656 Z M 1062.433594 786.453125 " fill-opacity="1" fill-rule="nonzero"/></g><g clip-path="url(#24b116bacf)"><path fill="#ffffff" d="M 1178.160156 94.515625 L 1196.179688 94.515625 L 1196.179688 112.539062 L 1178.160156 112.539062 Z M 1178.160156 94.515625 " fill-opacity="1" fill-rule="nonzero"/></g><g clip-path="url(#50146c9e10)"><path fill="#ffffff" d="M 1178.160156 209.835938 L 1196.179688 209.835938 L 1196.179688 227.859375 L 1178.160156 227.859375 Z M 1178.160156 209.835938 " fill-opacity="1" fill-rule="nonzero"/></g><g clip-path="url(#f93831de68)"><path fill="#ffffff" d="M 1178.160156 325.160156 L 1196.179688 325.160156 L 1196.179688 343.179688 L 1178.160156 343.179688 Z M 1178.160156 325.160156 " fill-opacity="1" fill-rule="nonzero"/></g><g clip-path="url(#c65f878ca7)"><path fill="#ffffff" d="M 1178.160156 440.484375 L 1196.179688 440.484375 L 1196.179688 458.503906 L 1178.160156 458.503906 Z M 1178.160156 440.484375 " fill-opacity="1" fill-rule="nonzero"/></g><g clip-path="url(#ad7d2d49b6)"><path fill="#ffffff" d="M 1178.160156 555.804688 L 1196.179688 555.804688 L 1196.179688 573.828125 L 1178.160156 573.828125 Z M 1178.160156 555.804688 " fill-opacity="1" fill-rule="nonzero"/></g><g clip-path="url(#e27e4fed02)"><path fill="#ffffff" d="M 1178.160156 671.125 L 1196.179688 671.125 L 1196.179688 689.148438 L 1178.160156 689.148438 Z M 1178.160156 671.125 " fill-opacity="1" fill-rule="nonzero"/></g><g clip-path="url(#09ef91e105)"><path fill="#ffffff" d="M 1178.160156 786.453125 L 1196.179688 786.453125 L 1196.179688 804.472656 L 1178.160156 804.472656 Z M 1178.160156 786.453125 " fill-opacity="1" fill-rule="nonzero"/></g></svg>